<mxfile host="app.diagrams.net" modified="2021-06-21T08:15:47.760Z" agent="5.0 (Windows NT 10.0; Win64; x64) AppleWebKit/537.36 (KHTML, like Gecko) Chrome/91.0.4472.77 Safari/537.36" etag="9RN4M8wofer2BvF0MgeP" version="14.7.3" type="github">
  <diagram id="DuYkPQjpzPQcg6eWqPGx" name="Page-1">
    <mxGraphModel dx="1221" dy="578" grid="1" gridSize="10" guides="1" tooltips="1" connect="1" arrows="1" fold="1" page="1" pageScale="1" pageWidth="827" pageHeight="1169" math="0" shadow="0">
      <root>
        <mxCell id="0" />
        <mxCell id="1" parent="0" />
        <mxCell id="maLpkAeb7_vmMKxVR43D-1" value="" style="rounded=1;whiteSpace=wrap;html=1;fillColor=#999999;" vertex="1" parent="1">
          <mxGeometry x="213" y="220" width="520" height="90" as="geometry" />
        </mxCell>
        <mxCell id="maLpkAeb7_vmMKxVR43D-4" value="" style="rounded=0;whiteSpace=wrap;html=1;fillColor=#999999;" vertex="1" parent="1">
          <mxGeometry x="243" y="340" width="40" height="60" as="geometry" />
        </mxCell>
        <mxCell id="maLpkAeb7_vmMKxVR43D-12" value="" style="ellipse;whiteSpace=wrap;html=1;aspect=fixed;fillColor=#FF0000;" vertex="1" parent="1">
          <mxGeometry x="250.5" y="371" width="25" height="25" as="geometry" />
        </mxCell>
        <mxCell id="maLpkAeb7_vmMKxVR43D-13" value="" style="ellipse;whiteSpace=wrap;html=1;aspect=fixed;fillColor=#FF0000;" vertex="1" parent="1">
          <mxGeometry x="250.5" y="344" width="25" height="25" as="geometry" />
        </mxCell>
        <mxCell id="maLpkAeb7_vmMKxVR43D-14" value="&lt;font style=&quot;font-size: 24px&quot;&gt;&lt;b&gt;Transformer&lt;/b&gt;&lt;/font&gt;" style="text;html=1;strokeColor=none;fillColor=none;align=center;verticalAlign=middle;whiteSpace=wrap;rounded=0;" vertex="1" parent="1">
          <mxGeometry x="409.5" y="260" width="140" height="20" as="geometry" />
        </mxCell>
        <mxCell id="maLpkAeb7_vmMKxVR43D-16" value="" style="rounded=0;whiteSpace=wrap;html=1;fillColor=#999999;" vertex="1" parent="1">
          <mxGeometry x="243" y="81" width="46.5" height="110" as="geometry" />
        </mxCell>
        <mxCell id="maLpkAeb7_vmMKxVR43D-17" value="" style="ellipse;whiteSpace=wrap;html=1;aspect=fixed;strokeColor=#000000;fillColor=#6666FF;" vertex="1" parent="1">
          <mxGeometry x="250.5" y="87" width="30" height="30" as="geometry" />
        </mxCell>
        <mxCell id="maLpkAeb7_vmMKxVR43D-18" value="" style="ellipse;whiteSpace=wrap;html=1;aspect=fixed;strokeColor=#000000;fillColor=#6666FF;" vertex="1" parent="1">
          <mxGeometry x="251.25" y="120" width="30" height="30" as="geometry" />
        </mxCell>
        <mxCell id="maLpkAeb7_vmMKxVR43D-19" value="" style="ellipse;whiteSpace=wrap;html=1;aspect=fixed;strokeColor=#000000;fillColor=#6666FF;" vertex="1" parent="1">
          <mxGeometry x="251.25" y="153" width="30" height="30" as="geometry" />
        </mxCell>
        <mxCell id="maLpkAeb7_vmMKxVR43D-77" value="" style="rounded=0;whiteSpace=wrap;html=1;fillColor=#999999;" vertex="1" parent="1">
          <mxGeometry x="323" y="81" width="46.5" height="110" as="geometry" />
        </mxCell>
        <mxCell id="maLpkAeb7_vmMKxVR43D-78" value="" style="ellipse;whiteSpace=wrap;html=1;aspect=fixed;strokeColor=#000000;fillColor=#6666FF;" vertex="1" parent="1">
          <mxGeometry x="330.5" y="87" width="30" height="30" as="geometry" />
        </mxCell>
        <mxCell id="maLpkAeb7_vmMKxVR43D-79" value="" style="ellipse;whiteSpace=wrap;html=1;aspect=fixed;strokeColor=#000000;fillColor=#6666FF;" vertex="1" parent="1">
          <mxGeometry x="331.25" y="120" width="30" height="30" as="geometry" />
        </mxCell>
        <mxCell id="maLpkAeb7_vmMKxVR43D-80" value="" style="ellipse;whiteSpace=wrap;html=1;aspect=fixed;strokeColor=#000000;fillColor=#6666FF;" vertex="1" parent="1">
          <mxGeometry x="331.25" y="153" width="30" height="30" as="geometry" />
        </mxCell>
        <mxCell id="maLpkAeb7_vmMKxVR43D-81" value="" style="rounded=0;whiteSpace=wrap;html=1;fillColor=#999999;" vertex="1" parent="1">
          <mxGeometry x="413" y="81" width="46.5" height="110" as="geometry" />
        </mxCell>
        <mxCell id="maLpkAeb7_vmMKxVR43D-82" value="" style="ellipse;whiteSpace=wrap;html=1;aspect=fixed;strokeColor=#000000;fillColor=#6666FF;" vertex="1" parent="1">
          <mxGeometry x="420.5" y="87" width="30" height="30" as="geometry" />
        </mxCell>
        <mxCell id="maLpkAeb7_vmMKxVR43D-83" value="" style="ellipse;whiteSpace=wrap;html=1;aspect=fixed;strokeColor=#000000;fillColor=#6666FF;" vertex="1" parent="1">
          <mxGeometry x="421.25" y="120" width="30" height="30" as="geometry" />
        </mxCell>
        <mxCell id="maLpkAeb7_vmMKxVR43D-84" value="" style="ellipse;whiteSpace=wrap;html=1;aspect=fixed;strokeColor=#000000;fillColor=#6666FF;" vertex="1" parent="1">
          <mxGeometry x="421.25" y="153" width="30" height="30" as="geometry" />
        </mxCell>
        <mxCell id="maLpkAeb7_vmMKxVR43D-85" value="" style="rounded=0;whiteSpace=wrap;html=1;fillColor=#999999;" vertex="1" parent="1">
          <mxGeometry x="503" y="80" width="46.5" height="110" as="geometry" />
        </mxCell>
        <mxCell id="maLpkAeb7_vmMKxVR43D-86" value="" style="ellipse;whiteSpace=wrap;html=1;aspect=fixed;strokeColor=#000000;fillColor=#6666FF;" vertex="1" parent="1">
          <mxGeometry x="510.5" y="86" width="30" height="30" as="geometry" />
        </mxCell>
        <mxCell id="maLpkAeb7_vmMKxVR43D-87" value="" style="ellipse;whiteSpace=wrap;html=1;aspect=fixed;strokeColor=#000000;fillColor=#6666FF;" vertex="1" parent="1">
          <mxGeometry x="511.25" y="119" width="30" height="30" as="geometry" />
        </mxCell>
        <mxCell id="maLpkAeb7_vmMKxVR43D-88" value="" style="ellipse;whiteSpace=wrap;html=1;aspect=fixed;strokeColor=#000000;fillColor=#6666FF;" vertex="1" parent="1">
          <mxGeometry x="511.25" y="152" width="30" height="30" as="geometry" />
        </mxCell>
        <mxCell id="maLpkAeb7_vmMKxVR43D-89" value="" style="rounded=0;whiteSpace=wrap;html=1;fillColor=#999999;" vertex="1" parent="1">
          <mxGeometry x="587" y="81" width="46.5" height="110" as="geometry" />
        </mxCell>
        <mxCell id="maLpkAeb7_vmMKxVR43D-90" value="" style="ellipse;whiteSpace=wrap;html=1;aspect=fixed;strokeColor=#000000;fillColor=#6666FF;" vertex="1" parent="1">
          <mxGeometry x="594.5" y="87" width="30" height="30" as="geometry" />
        </mxCell>
        <mxCell id="maLpkAeb7_vmMKxVR43D-91" value="" style="ellipse;whiteSpace=wrap;html=1;aspect=fixed;strokeColor=#000000;fillColor=#6666FF;" vertex="1" parent="1">
          <mxGeometry x="595.25" y="120" width="30" height="30" as="geometry" />
        </mxCell>
        <mxCell id="maLpkAeb7_vmMKxVR43D-92" value="" style="ellipse;whiteSpace=wrap;html=1;aspect=fixed;strokeColor=#000000;fillColor=#6666FF;" vertex="1" parent="1">
          <mxGeometry x="595.25" y="153" width="30" height="30" as="geometry" />
        </mxCell>
        <mxCell id="maLpkAeb7_vmMKxVR43D-93" value="" style="rounded=0;whiteSpace=wrap;html=1;fillColor=#999999;" vertex="1" parent="1">
          <mxGeometry x="665" y="81" width="46.5" height="110" as="geometry" />
        </mxCell>
        <mxCell id="maLpkAeb7_vmMKxVR43D-94" value="" style="ellipse;whiteSpace=wrap;html=1;aspect=fixed;strokeColor=#000000;fillColor=#6666FF;" vertex="1" parent="1">
          <mxGeometry x="672.5" y="87" width="30" height="30" as="geometry" />
        </mxCell>
        <mxCell id="maLpkAeb7_vmMKxVR43D-95" value="" style="ellipse;whiteSpace=wrap;html=1;aspect=fixed;strokeColor=#000000;fillColor=#6666FF;" vertex="1" parent="1">
          <mxGeometry x="673.25" y="120" width="30" height="30" as="geometry" />
        </mxCell>
        <mxCell id="maLpkAeb7_vmMKxVR43D-96" value="" style="ellipse;whiteSpace=wrap;html=1;aspect=fixed;strokeColor=#000000;fillColor=#6666FF;" vertex="1" parent="1">
          <mxGeometry x="673.25" y="153" width="30" height="30" as="geometry" />
        </mxCell>
        <mxCell id="maLpkAeb7_vmMKxVR43D-97" value="" style="rounded=0;whiteSpace=wrap;html=1;fillColor=#999999;" vertex="1" parent="1">
          <mxGeometry x="331" y="340" width="40" height="60" as="geometry" />
        </mxCell>
        <mxCell id="maLpkAeb7_vmMKxVR43D-98" value="" style="ellipse;whiteSpace=wrap;html=1;aspect=fixed;fillColor=#FF0000;" vertex="1" parent="1">
          <mxGeometry x="338.5" y="371" width="25" height="25" as="geometry" />
        </mxCell>
        <mxCell id="maLpkAeb7_vmMKxVR43D-99" value="" style="ellipse;whiteSpace=wrap;html=1;aspect=fixed;fillColor=#FF0000;" vertex="1" parent="1">
          <mxGeometry x="338.5" y="344" width="25" height="25" as="geometry" />
        </mxCell>
        <mxCell id="maLpkAeb7_vmMKxVR43D-100" value="" style="rounded=0;whiteSpace=wrap;html=1;fillColor=#999999;" vertex="1" parent="1">
          <mxGeometry x="414" y="339" width="40" height="60" as="geometry" />
        </mxCell>
        <mxCell id="maLpkAeb7_vmMKxVR43D-101" value="" style="ellipse;whiteSpace=wrap;html=1;aspect=fixed;fillColor=#FF0000;" vertex="1" parent="1">
          <mxGeometry x="421.5" y="370" width="25" height="25" as="geometry" />
        </mxCell>
        <mxCell id="maLpkAeb7_vmMKxVR43D-102" value="" style="ellipse;whiteSpace=wrap;html=1;aspect=fixed;fillColor=#FF0000;" vertex="1" parent="1">
          <mxGeometry x="421.5" y="343" width="25" height="25" as="geometry" />
        </mxCell>
        <mxCell id="maLpkAeb7_vmMKxVR43D-103" value="" style="rounded=0;whiteSpace=wrap;html=1;fillColor=#999999;" vertex="1" parent="1">
          <mxGeometry x="506" y="338" width="40" height="60" as="geometry" />
        </mxCell>
        <mxCell id="maLpkAeb7_vmMKxVR43D-104" value="" style="ellipse;whiteSpace=wrap;html=1;aspect=fixed;fillColor=#FF0000;" vertex="1" parent="1">
          <mxGeometry x="513.5" y="369" width="25" height="25" as="geometry" />
        </mxCell>
        <mxCell id="maLpkAeb7_vmMKxVR43D-105" value="" style="ellipse;whiteSpace=wrap;html=1;aspect=fixed;fillColor=#FF0000;" vertex="1" parent="1">
          <mxGeometry x="513.5" y="342" width="25" height="25" as="geometry" />
        </mxCell>
        <mxCell id="maLpkAeb7_vmMKxVR43D-106" value="" style="rounded=0;whiteSpace=wrap;html=1;fillColor=#999999;" vertex="1" parent="1">
          <mxGeometry x="598" y="338" width="40" height="60" as="geometry" />
        </mxCell>
        <mxCell id="maLpkAeb7_vmMKxVR43D-107" value="" style="ellipse;whiteSpace=wrap;html=1;aspect=fixed;fillColor=#FF0000;" vertex="1" parent="1">
          <mxGeometry x="605.5" y="369" width="25" height="25" as="geometry" />
        </mxCell>
        <mxCell id="maLpkAeb7_vmMKxVR43D-108" value="" style="ellipse;whiteSpace=wrap;html=1;aspect=fixed;fillColor=#FF0000;" vertex="1" parent="1">
          <mxGeometry x="605.5" y="342" width="25" height="25" as="geometry" />
        </mxCell>
        <mxCell id="maLpkAeb7_vmMKxVR43D-109" value="" style="rounded=0;whiteSpace=wrap;html=1;fillColor=#999999;" vertex="1" parent="1">
          <mxGeometry x="673" y="339" width="40" height="60" as="geometry" />
        </mxCell>
        <mxCell id="maLpkAeb7_vmMKxVR43D-110" value="" style="ellipse;whiteSpace=wrap;html=1;aspect=fixed;fillColor=#FF0000;" vertex="1" parent="1">
          <mxGeometry x="680.5" y="370" width="25" height="25" as="geometry" />
        </mxCell>
        <mxCell id="maLpkAeb7_vmMKxVR43D-111" value="" style="ellipse;whiteSpace=wrap;html=1;aspect=fixed;fillColor=#FF0000;" vertex="1" parent="1">
          <mxGeometry x="680.5" y="343" width="25" height="25" as="geometry" />
        </mxCell>
        <mxCell id="maLpkAeb7_vmMKxVR43D-112" value="" style="endArrow=classic;html=1;" edge="1" parent="1">
          <mxGeometry width="50" height="50" relative="1" as="geometry">
            <mxPoint x="263" y="340" as="sourcePoint" />
            <mxPoint x="263" y="316" as="targetPoint" />
          </mxGeometry>
        </mxCell>
        <mxCell id="maLpkAeb7_vmMKxVR43D-115" value="" style="endArrow=classic;html=1;" edge="1" parent="1">
          <mxGeometry width="50" height="50" relative="1" as="geometry">
            <mxPoint x="263" y="442" as="sourcePoint" />
            <mxPoint x="263" y="402" as="targetPoint" />
          </mxGeometry>
        </mxCell>
        <mxCell id="maLpkAeb7_vmMKxVR43D-118" value="" style="endArrow=classic;html=1;" edge="1" parent="1">
          <mxGeometry width="50" height="50" relative="1" as="geometry">
            <mxPoint x="350.5" y="339" as="sourcePoint" />
            <mxPoint x="350.5" y="315" as="targetPoint" />
          </mxGeometry>
        </mxCell>
        <mxCell id="maLpkAeb7_vmMKxVR43D-121" value="" style="endArrow=classic;html=1;" edge="1" parent="1">
          <mxGeometry width="50" height="50" relative="1" as="geometry">
            <mxPoint x="433.5" y="338" as="sourcePoint" />
            <mxPoint x="433.5" y="314" as="targetPoint" />
          </mxGeometry>
        </mxCell>
        <mxCell id="maLpkAeb7_vmMKxVR43D-123" value="" style="endArrow=classic;html=1;" edge="1" parent="1">
          <mxGeometry width="50" height="50" relative="1" as="geometry">
            <mxPoint x="525.5" y="337" as="sourcePoint" />
            <mxPoint x="525.5" y="313" as="targetPoint" />
          </mxGeometry>
        </mxCell>
        <mxCell id="maLpkAeb7_vmMKxVR43D-124" value="" style="endArrow=classic;html=1;" edge="1" parent="1">
          <mxGeometry width="50" height="50" relative="1" as="geometry">
            <mxPoint x="618" y="337" as="sourcePoint" />
            <mxPoint x="618" y="313" as="targetPoint" />
          </mxGeometry>
        </mxCell>
        <mxCell id="maLpkAeb7_vmMKxVR43D-125" value="" style="endArrow=classic;html=1;" edge="1" parent="1">
          <mxGeometry width="50" height="50" relative="1" as="geometry">
            <mxPoint x="693" y="338" as="sourcePoint" />
            <mxPoint x="693" y="314" as="targetPoint" />
          </mxGeometry>
        </mxCell>
        <mxCell id="maLpkAeb7_vmMKxVR43D-128" value="" style="endArrow=classic;html=1;" edge="1" parent="1">
          <mxGeometry width="50" height="50" relative="1" as="geometry">
            <mxPoint x="266" y="218" as="sourcePoint" />
            <mxPoint x="266" y="194" as="targetPoint" />
          </mxGeometry>
        </mxCell>
        <mxCell id="maLpkAeb7_vmMKxVR43D-129" value="" style="endArrow=classic;html=1;" edge="1" parent="1">
          <mxGeometry width="50" height="50" relative="1" as="geometry">
            <mxPoint x="346" y="218" as="sourcePoint" />
            <mxPoint x="346" y="194" as="targetPoint" />
          </mxGeometry>
        </mxCell>
        <mxCell id="maLpkAeb7_vmMKxVR43D-130" value="" style="endArrow=classic;html=1;" edge="1" parent="1">
          <mxGeometry width="50" height="50" relative="1" as="geometry">
            <mxPoint x="436" y="218" as="sourcePoint" />
            <mxPoint x="436" y="194" as="targetPoint" />
          </mxGeometry>
        </mxCell>
        <mxCell id="maLpkAeb7_vmMKxVR43D-131" value="" style="endArrow=classic;html=1;" edge="1" parent="1">
          <mxGeometry width="50" height="50" relative="1" as="geometry">
            <mxPoint x="526" y="217" as="sourcePoint" />
            <mxPoint x="526" y="193" as="targetPoint" />
          </mxGeometry>
        </mxCell>
        <mxCell id="maLpkAeb7_vmMKxVR43D-132" value="" style="endArrow=classic;html=1;" edge="1" parent="1">
          <mxGeometry width="50" height="50" relative="1" as="geometry">
            <mxPoint x="612" y="218" as="sourcePoint" />
            <mxPoint x="612" y="194" as="targetPoint" />
          </mxGeometry>
        </mxCell>
        <mxCell id="maLpkAeb7_vmMKxVR43D-133" value="" style="endArrow=classic;html=1;" edge="1" parent="1">
          <mxGeometry width="50" height="50" relative="1" as="geometry">
            <mxPoint x="689" y="217" as="sourcePoint" />
            <mxPoint x="689" y="193" as="targetPoint" />
          </mxGeometry>
        </mxCell>
        <mxCell id="maLpkAeb7_vmMKxVR43D-134" value="" style="endArrow=classic;html=1;" edge="1" parent="1">
          <mxGeometry width="50" height="50" relative="1" as="geometry">
            <mxPoint x="350.5" y="443" as="sourcePoint" />
            <mxPoint x="350.5" y="403" as="targetPoint" />
          </mxGeometry>
        </mxCell>
        <mxCell id="maLpkAeb7_vmMKxVR43D-135" value="" style="endArrow=classic;html=1;" edge="1" parent="1">
          <mxGeometry width="50" height="50" relative="1" as="geometry">
            <mxPoint x="433" y="442" as="sourcePoint" />
            <mxPoint x="433" y="402" as="targetPoint" />
          </mxGeometry>
        </mxCell>
        <mxCell id="maLpkAeb7_vmMKxVR43D-136" value="" style="endArrow=classic;html=1;" edge="1" parent="1">
          <mxGeometry width="50" height="50" relative="1" as="geometry">
            <mxPoint x="525" y="441" as="sourcePoint" />
            <mxPoint x="525" y="401" as="targetPoint" />
          </mxGeometry>
        </mxCell>
        <mxCell id="maLpkAeb7_vmMKxVR43D-138" value="" style="endArrow=classic;html=1;" edge="1" parent="1">
          <mxGeometry width="50" height="50" relative="1" as="geometry">
            <mxPoint x="692" y="442" as="sourcePoint" />
            <mxPoint x="692" y="402" as="targetPoint" />
          </mxGeometry>
        </mxCell>
        <mxCell id="maLpkAeb7_vmMKxVR43D-139" value="" style="endArrow=classic;html=1;" edge="1" parent="1">
          <mxGeometry width="50" height="50" relative="1" as="geometry">
            <mxPoint x="618" y="441" as="sourcePoint" />
            <mxPoint x="618" y="401" as="targetPoint" />
          </mxGeometry>
        </mxCell>
        <mxCell id="maLpkAeb7_vmMKxVR43D-140" value="" style="endArrow=classic;html=1;" edge="1" parent="1">
          <mxGeometry width="50" height="50" relative="1" as="geometry">
            <mxPoint x="267" y="79" as="sourcePoint" />
            <mxPoint x="267" y="55" as="targetPoint" />
          </mxGeometry>
        </mxCell>
        <mxCell id="maLpkAeb7_vmMKxVR43D-141" value="" style="endArrow=classic;html=1;" edge="1" parent="1">
          <mxGeometry width="50" height="50" relative="1" as="geometry">
            <mxPoint x="345" y="79" as="sourcePoint" />
            <mxPoint x="345" y="55" as="targetPoint" />
          </mxGeometry>
        </mxCell>
        <mxCell id="maLpkAeb7_vmMKxVR43D-142" value="" style="endArrow=classic;html=1;" edge="1" parent="1">
          <mxGeometry width="50" height="50" relative="1" as="geometry">
            <mxPoint x="436" y="79" as="sourcePoint" />
            <mxPoint x="436" y="55" as="targetPoint" />
          </mxGeometry>
        </mxCell>
        <mxCell id="maLpkAeb7_vmMKxVR43D-143" value="" style="endArrow=classic;html=1;" edge="1" parent="1">
          <mxGeometry width="50" height="50" relative="1" as="geometry">
            <mxPoint x="526" y="79" as="sourcePoint" />
            <mxPoint x="526" y="55" as="targetPoint" />
          </mxGeometry>
        </mxCell>
        <mxCell id="maLpkAeb7_vmMKxVR43D-144" value="" style="endArrow=classic;html=1;" edge="1" parent="1">
          <mxGeometry width="50" height="50" relative="1" as="geometry">
            <mxPoint x="609" y="79" as="sourcePoint" />
            <mxPoint x="609" y="55" as="targetPoint" />
          </mxGeometry>
        </mxCell>
        <mxCell id="maLpkAeb7_vmMKxVR43D-145" value="" style="endArrow=classic;html=1;" edge="1" parent="1">
          <mxGeometry width="50" height="50" relative="1" as="geometry">
            <mxPoint x="688" y="79" as="sourcePoint" />
            <mxPoint x="688" y="55" as="targetPoint" />
          </mxGeometry>
        </mxCell>
        <mxCell id="maLpkAeb7_vmMKxVR43D-146" value="&lt;font style=&quot;font-size: 18px&quot;&gt;&lt;b&gt;Classifier&lt;/b&gt;&lt;/font&gt;" style="text;html=1;strokeColor=none;fillColor=none;align=center;verticalAlign=middle;whiteSpace=wrap;rounded=0;" vertex="1" parent="1">
          <mxGeometry x="113" y="50" width="70" height="30" as="geometry" />
        </mxCell>
        <mxCell id="maLpkAeb7_vmMKxVR43D-147" value="&lt;b style=&quot;color: rgb(0 , 0 , 0) ; font-family: &amp;#34;helvetica&amp;#34; ; font-size: 18px ; font-style: normal ; letter-spacing: normal ; text-align: center ; text-indent: 0px ; text-transform: none ; word-spacing: 0px ; background-color: rgb(248 , 249 , 250)&quot;&gt;Encoder&lt;/b&gt;" style="text;whiteSpace=wrap;html=1;" vertex="1" parent="1">
          <mxGeometry x="113" y="250" width="80" height="30" as="geometry" />
        </mxCell>
        <mxCell id="maLpkAeb7_vmMKxVR43D-148" value="&lt;b style=&quot;color: rgb(0 , 0 , 0) ; font-family: &amp;#34;helvetica&amp;#34; ; font-size: 18px ; font-style: normal ; letter-spacing: normal ; text-align: center ; text-indent: 0px ; text-transform: none ; word-spacing: 0px ; background-color: rgb(248 , 249 , 250)&quot;&gt;Lookup&lt;/b&gt;" style="text;whiteSpace=wrap;html=1;" vertex="1" parent="1">
          <mxGeometry x="113" y="410" width="110" height="30" as="geometry" />
        </mxCell>
        <mxCell id="maLpkAeb7_vmMKxVR43D-149" value="&lt;font style=&quot;font-size: 18px&quot;&gt;&lt;b&gt;O&lt;/b&gt;&lt;/font&gt;" style="text;html=1;strokeColor=none;fillColor=none;align=center;verticalAlign=middle;whiteSpace=wrap;rounded=0;" vertex="1" parent="1">
          <mxGeometry x="246.25" y="20" width="40" height="20" as="geometry" />
        </mxCell>
        <mxCell id="maLpkAeb7_vmMKxVR43D-150" value="&lt;font style=&quot;font-size: 18px&quot;&gt;&lt;b&gt;O&lt;/b&gt;&lt;/font&gt;" style="text;html=1;strokeColor=none;fillColor=none;align=center;verticalAlign=middle;whiteSpace=wrap;rounded=0;" vertex="1" parent="1">
          <mxGeometry x="321.25" y="20" width="40" height="20" as="geometry" />
        </mxCell>
        <mxCell id="maLpkAeb7_vmMKxVR43D-151" value="&lt;font style=&quot;font-size: 18px&quot;&gt;&lt;b&gt;Transport&lt;/b&gt;&lt;/font&gt;" style="text;html=1;strokeColor=none;fillColor=none;align=center;verticalAlign=middle;whiteSpace=wrap;rounded=0;" vertex="1" parent="1">
          <mxGeometry x="415.5" y="20" width="40" height="20" as="geometry" />
        </mxCell>
        <mxCell id="maLpkAeb7_vmMKxVR43D-152" value="&lt;font style=&quot;font-size: 18px&quot;&gt;&lt;b&gt;O&lt;/b&gt;&lt;/font&gt;" style="text;html=1;strokeColor=none;fillColor=none;align=center;verticalAlign=middle;whiteSpace=wrap;rounded=0;" vertex="1" parent="1">
          <mxGeometry x="503" y="20" width="40" height="20" as="geometry" />
        </mxCell>
        <mxCell id="maLpkAeb7_vmMKxVR43D-153" value="&lt;font style=&quot;font-size: 18px&quot;&gt;&lt;b&gt;O&lt;/b&gt;&lt;/font&gt;" style="text;html=1;strokeColor=none;fillColor=none;align=center;verticalAlign=middle;whiteSpace=wrap;rounded=0;" vertex="1" parent="1">
          <mxGeometry x="587" y="20" width="40" height="20" as="geometry" />
        </mxCell>
        <mxCell id="maLpkAeb7_vmMKxVR43D-154" value="&lt;font style=&quot;font-size: 18px&quot;&gt;&lt;b&gt;O&lt;/b&gt;&lt;/font&gt;" style="text;html=1;strokeColor=none;fillColor=none;align=center;verticalAlign=middle;whiteSpace=wrap;rounded=0;" vertex="1" parent="1">
          <mxGeometry x="665.5" y="20" width="40" height="20" as="geometry" />
        </mxCell>
        <mxCell id="maLpkAeb7_vmMKxVR43D-155" value="&lt;font style=&quot;font-size: 18px&quot;&gt;&lt;b&gt;The&lt;/b&gt;&lt;/font&gt;" style="text;html=1;strokeColor=none;fillColor=none;align=center;verticalAlign=middle;whiteSpace=wrap;rounded=0;" vertex="1" parent="1">
          <mxGeometry x="241.25" y="450" width="40" height="20" as="geometry" />
        </mxCell>
        <mxCell id="maLpkAeb7_vmMKxVR43D-156" value="&lt;font style=&quot;font-size: 18px&quot;&gt;&lt;b&gt;plane&lt;/b&gt;&lt;/font&gt;" style="text;html=1;strokeColor=none;fillColor=none;align=center;verticalAlign=middle;whiteSpace=wrap;rounded=0;" vertex="1" parent="1">
          <mxGeometry x="329.5" y="450" width="40" height="20" as="geometry" />
        </mxCell>
        <mxCell id="maLpkAeb7_vmMKxVR43D-157" value="&lt;font style=&quot;font-size: 18px&quot;&gt;&lt;b&gt;landed&lt;/b&gt;&lt;/font&gt;" style="text;html=1;strokeColor=none;fillColor=none;align=center;verticalAlign=middle;whiteSpace=wrap;rounded=0;" vertex="1" parent="1">
          <mxGeometry x="421.25" y="450" width="40" height="20" as="geometry" />
        </mxCell>
        <mxCell id="maLpkAeb7_vmMKxVR43D-158" value="&lt;font style=&quot;font-size: 18px&quot;&gt;&lt;b&gt;last&lt;/b&gt;&lt;/font&gt;" style="text;html=1;strokeColor=none;fillColor=none;align=center;verticalAlign=middle;whiteSpace=wrap;rounded=0;" vertex="1" parent="1">
          <mxGeometry x="509.5" y="450" width="40" height="20" as="geometry" />
        </mxCell>
        <mxCell id="maLpkAeb7_vmMKxVR43D-159" value="&lt;font style=&quot;font-size: 18px&quot;&gt;&lt;b&gt;night&lt;/b&gt;&lt;/font&gt;" style="text;html=1;strokeColor=none;fillColor=none;align=center;verticalAlign=middle;whiteSpace=wrap;rounded=0;" vertex="1" parent="1">
          <mxGeometry x="605.5" y="450" width="40" height="20" as="geometry" />
        </mxCell>
        <mxCell id="maLpkAeb7_vmMKxVR43D-160" value="&lt;font style=&quot;font-size: 18px&quot;&gt;&lt;b&gt;.&lt;/b&gt;&lt;/font&gt;" style="text;html=1;strokeColor=none;fillColor=none;align=center;verticalAlign=middle;whiteSpace=wrap;rounded=0;" vertex="1" parent="1">
          <mxGeometry x="672.5" y="450" width="40" height="20" as="geometry" />
        </mxCell>
        <mxCell id="maLpkAeb7_vmMKxVR43D-162" value="" style="endArrow=none;html=1;" edge="1" parent="1">
          <mxGeometry width="50" height="50" relative="1" as="geometry">
            <mxPoint x="760" y="480" as="sourcePoint" />
            <mxPoint x="760" y="10" as="targetPoint" />
          </mxGeometry>
        </mxCell>
        <mxCell id="maLpkAeb7_vmMKxVR43D-163" value="" style="endArrow=none;html=1;" edge="1" parent="1">
          <mxGeometry width="50" height="50" relative="1" as="geometry">
            <mxPoint x="80" y="480" as="sourcePoint" />
            <mxPoint x="760" y="480" as="targetPoint" />
          </mxGeometry>
        </mxCell>
        <mxCell id="maLpkAeb7_vmMKxVR43D-164" value="" style="endArrow=none;html=1;" edge="1" parent="1">
          <mxGeometry width="50" height="50" relative="1" as="geometry">
            <mxPoint x="81" y="480" as="sourcePoint" />
            <mxPoint x="81" y="10" as="targetPoint" />
          </mxGeometry>
        </mxCell>
        <mxCell id="maLpkAeb7_vmMKxVR43D-165" value="" style="endArrow=none;html=1;" edge="1" parent="1">
          <mxGeometry width="50" height="50" relative="1" as="geometry">
            <mxPoint x="80" y="10" as="sourcePoint" />
            <mxPoint x="760" y="10" as="targetPoint" />
          </mxGeometry>
        </mxCell>
      </root>
    </mxGraphModel>
  </diagram>
</mxfile>
